<?xml version="1.0" encoding="utf-8"?>
<!-- Generator: Adobe Illustrator 27.0.1, SVG Export Plug-In . SVG Version: 6.00 Build 0)  -->
<svg version="1.1" id="katman_2" xmlns="http://www.w3.org/2000/svg" xmlns:xlink="http://www.w3.org/1999/xlink" x="0px" y="0px"
	 viewBox="0 0 53.7 53.7" style="enable-background:new 0 0 53.7 53.7;" xml:space="preserve">

<g id="katman_1">
	<path class="st0" d="M39.6,0H14C6.3,0,0,6.3,0,14v25.6c0,7.7,6.3,14,14,14h8.6V35.4h-6.8v-7.8h6.8v-5.9c0-6.7,4-10.4,10.1-10.4
		c2.9,0,6,0.5,6,0.5v6.6h-3.4c-3.3,0-4.4,2.1-4.4,4.2v5h7.4l-1.2,7.8H31v18.2h8.6c7.7,0,14-6.3,14-14V14C53.6,6.3,47.3,0,39.6,0
		L39.6,0z"/>
</g>
</svg>
