<?xml version="1.0" encoding="utf-8"?>
<!-- Generator: Adobe Illustrator 27.0.1, SVG Export Plug-In . SVG Version: 6.00 Build 0)  -->
<svg version="1.1" id="katman_2" xmlns="http://www.w3.org/2000/svg" xmlns:xlink="http://www.w3.org/1999/xlink" x="0px" y="0px"
	 viewBox="0 0 53.7 53.7" style="enable-background:new 0 0 53.7 53.7;" xml:space="preserve">

<g id="katman_1">
	<path class="st0" d="M39.6,0H14C6.3,0,0,6.3,0,14v25.6c0,7.7,6.3,14,14,14h25.6c7.7,0,14-6.3,14-14V14C53.6,6.3,47.3,0,39.6,0
		L39.6,0z M42.6,33.1c0,5.2-4.2,9.5-9.5,9.5H20.5c-5.2,0-9.4-4.2-9.4-9.5V20.5c0-5.2,4.2-9.4,9.4-9.4h12.6c5.2,0,9.5,4.2,9.5,9.4
		V33.1z"/>
	<path class="st0" d="M33.1,14.1H20.5C17,14.1,14,17,14,20.5v12.6c0,3.6,2.9,6.5,6.5,6.5h12.6c3.6,0,6.5-2.9,6.5-6.5V20.5
		C39.6,17,36.7,14.1,33.1,14.1z M26.9,34.6c-4.3,0-7.8-3.5-7.8-7.8s3.5-7.8,7.8-7.8s7.7,3.5,7.7,7.8S31.2,34.6,26.9,34.6z
		 M35.1,20.4c-1,0-1.8-0.8-1.8-1.8s0.8-1.8,1.8-1.8s1.8,0.8,1.8,1.8S36.2,20.4,35.1,20.4z"/>
	<path class="st0" d="M27,21.9c-2.7,0-5,2.2-5,5s2.2,5,5,5s5-2.2,5-5S29.7,21.9,27,21.9z"/>
</g>
</svg>
