<?xml version="1.0" encoding="utf-8"?>
<!-- Generator: Adobe Illustrator 27.0.1, SVG Export Plug-In . SVG Version: 6.00 Build 0)  -->
<svg version="1.1" id="katman_1" xmlns="http://www.w3.org/2000/svg" xmlns:xlink="http://www.w3.org/1999/xlink" x="0px" y="0px"
	 viewBox="0 0 384.8 130.3" style="enable-background:new 0 0 384.8 130.3;" xml:space="preserve">
<style type="text/css">
	.st0{fill:#B77C4A;}
</style>
<g>
	<path class="st0" d="M260.2,44.5h20.7v51.1h-20.7V44.5z M227.4,44.5h-20.7l-16.1,0l-37.8,39.2h-2.5V44.5h-20.7v51.1h11.8
		l-33.6,34.7l16.5-0.1l82.5-85.4v50.7h47.9V83.7h-27.2V44.5z M102.2,95.6V55.7H54.9L16.5,95.6H0l38.4-39.9H3V44.5h46.2L92.2,0h31.7
		v95.6H102.2z M102.2,44.5V6.7L65.7,44.5H102.2z M341.9,78.3l-34.7-33.9h0h-20.7v51.1h20.7V60.5l36,35.1h19.5V44.5h-20.7V78.3z
		 M384.8,29c0,6.6-5.4,11.9-11.9,11.9s-11.9-5.4-11.9-11.9S366.3,17,372.9,17S384.8,22.4,384.8,29z M382.8,29c0-5.5-4.5-9.9-9.9-9.9
		s-9.9,4.5-9.9,9.9s4.5,9.9,9.9,9.9S382.8,34.4,382.8,29z M260.2,38.9h20.7V0h-20.7V38.9z M375,29.7l2.6,5.1H375l-2.3-4.6H370v4.6
		h-2.5V22.6h4.5c1.1,0,2,0.1,2.6,0.3c0.7,0.2,1.2,0.5,1.6,0.8c0.4,0.3,0.6,0.7,0.8,1.2c0.1,0.4,0.2,0.9,0.2,1.4
		c0,0.9-0.2,1.6-0.5,2.1C376.4,29,375.8,29.4,375,29.7z M374.7,26.2c0-0.4-0.2-0.8-0.5-1.1s-1.1-0.5-2.3-0.5H370v3.5h2.3
		c1.1,0,1.8-0.2,2-0.6C374.5,27.2,374.7,26.7,374.7,26.2z"/>
</g>
</svg>
