<svg xmlns="http://www.w3.org/2000/svg" xml:space="preserve" style="enable-background:new 0 0 384.8 130.3" viewBox="0 0 384.8 130.3"><path d="M260.2 44.5h20.7v51.1h-20.7V44.5zm-32.8 0h-36.8l-37.8 39.2h-2.5V44.5h-20.7v51.1h11.8l-33.6 34.7 16.5-.1 82.5-85.4v50.7h47.9V83.7h-27.2V44.5zM102.2 95.6V55.7H54.9L16.5 95.6H0l38.4-39.9H3V44.5h46.2L92.2 0h31.7v95.6h-21.7zm0-51.1V6.7L65.7 44.5h36.5zm239.7 33.8-34.7-33.9h-20.7v51.1h20.7v-35l36 35.1h19.5V44.5H342v33.8zM384.8 29c0 6.6-5.4 11.9-11.9 11.9S361 35.5 361 29s5.3-12 11.9-12 11.9 5.4 11.9 12zm-2 0c0-5.5-4.5-9.9-9.9-9.9S363 23.6 363 29s4.5 9.9 9.9 9.9 9.9-4.5 9.9-9.9zm-122.6 9.9h20.7V0h-20.7v38.9zM375 29.7l2.6 5.1H375l-2.3-4.6H370v4.6h-2.5V22.6h4.5c1.1 0 2 .1 2.6.3.7.2 1.2.5 1.6.8.4.3.6.7.8 1.2.1.4.2.9.2 1.4 0 .9-.2 1.6-.5 2.1-.3.6-.9 1-1.7 1.3zm-.3-3.5c0-.4-.2-.8-.5-1.1s-1.1-.5-2.3-.5H370v3.5h2.3c1.1 0 1.8-.2 2-.6.2-.3.4-.8.4-1.3z" style="fill:#b77c4a"/></svg>