<?xml version="1.0" encoding="utf-8"?>
<!-- Generator: Adobe Illustrator 27.0.1, SVG Export Plug-In . SVG Version: 6.00 Build 0)  -->
<svg version="1.1" id="katman_2" xmlns="http://www.w3.org/2000/svg" xmlns:xlink="http://www.w3.org/1999/xlink" x="0px" y="0px"
	 viewBox="0 0 53.7 53.7" style="enable-background:new 0 0 53.7 53.7;" xml:space="preserve">

<g id="katman_1">
	<path class="st0" d="M39.6,0H14C6.3,0,0,6.3,0,14v25.6c0,7.7,6.3,14,14,14h25.6c7.7,0,14-6.3,14-14V14C53.6,6.3,47.3,0,39.6,0
		L39.6,0z M41.5,17.7c0,0.1,0,0.3-0.2,0.5c-0.7,0.9-1.4,1.7-2.3,2.4c-0.1,0.1-0.4,0.2-0.4,0.4c0,4.8-1.2,9.7-4.8,13.2
		c-4.5,4.5-11.2,5.7-17.2,4c-1.2-0.3-2.3-0.8-3.3-1.3c-0.4-0.2-0.7-0.4-1-0.6c-0.1-0.1-0.1-0.1-0.1-0.2c0.1,0,0.1,0,0.4,0
		c1.7,0.2,3.4-0.1,5-0.6c0.9-0.3,2.7-0.9,3.3-1.7c0,0,0,0,0,0c-0.2,0-0.4,0-0.6-0.1c-1.6-0.5-3.8-1.3-4.8-4c-0.1-0.2,0-0.2,0.2-0.2
		c1.3,0.1,1.8,0,2.3-0.1c-0.3,0-0.5-0.1-0.8-0.2c-2-0.8-3.5-2.8-3.8-4.9c0-0.2-0.1-0.5,0-0.7c0-0.2,0.1-0.2,0.2-0.1
		c1.1,0.5,2.2,0.7,2.3,0.6c-0.3-0.2-0.5-0.4-0.7-0.6c-1.8-1.7-2.5-5.1-1-7.2c0.1-0.2,0.2-0.2,0.3,0c3.2,3.7,7.2,5.4,12.1,6.1
		c0.1,0,0.1,0,0.1-0.1c-0.1-0.9-0.1-1.7,0.1-2.5c0.2-0.9,0.6-1.7,1.2-2.4c0.5-0.7,1.2-1.2,2-1.6c0.8-0.4,1.6-0.6,2.5-0.7
		c0.9-0.1,1.8,0.1,2.6,0.4c0.6,0.3,1.2,0.6,1.7,1c0.1,0.1,0.2,0.2,0.3,0.3c0.1,0.1,0.1,0.1,0.2,0.1c1.2-0.3,2.4-0.7,3.5-1.3
		c0,0,0.1,0,0.2,0c0,0,0,0.1,0,0.1c-0.2,0.6-0.5,1.3-1,1.8c-0.3,0.4-1,1.2-1.5,1.3c1-0.2,2-0.4,3-0.8C41.5,17.6,41.5,17.6,41.5,17.7
		L41.5,17.7L41.5,17.7z"/>
</g>
</svg>
