<?xml version="1.0" encoding="utf-8"?>
<!-- Generator: Adobe Illustrator 27.0.1, SVG Export Plug-In . SVG Version: 6.00 Build 0)  -->
<svg version="1.1" id="katman_2" xmlns="http://www.w3.org/2000/svg" xmlns:xlink="http://www.w3.org/1999/xlink" x="0px" y="0px"
	 viewBox="0 0 53.7 53.7" style="enable-background:new 0 0 53.7 53.7;" xml:space="preserve">
<style type="text/css">
	.st0{fill:#1E1E1C;}
</style>
<g id="katman_1">
	<path class="st0" d="M39.6,0H14C6.3,0,0,6.3,0,14v25.6c0,7.7,6.3,14,14,14h25.6c7.7,0,14-6.3,14-14V14C53.6,6.3,47.3,0,39.6,0
		L39.6,0z M42,29.7c0,3.6-2.9,6.4-6.4,6.4H19.1c-3.6,0-6.4-2.9-6.4-6.4V22c0-3.6,2.9-6.4,6.4-6.4h16.5c3.6,0,6.4,2.9,6.4,6.4
		L42,29.7L42,29.7z"/>
	<path class="st0" d="M24.9,21.8c-0.3-0.2-1.3,0-1.3,0.4v7.5c0,0.3,1,0.5,1.3,0.4l7.4-3.6c0.3-0.2,0-0.6-0.3-0.8
		C32,25.7,24.9,21.8,24.9,21.8z"/>
</g>
</svg>
