<!-- 
\sdata-name="[^"]*"
\sfill="[^"]*"
 -->
 
<svg width="0" height="0" class="hidden">
    <symbol xmlns="http://www.w3.org/2000/svg" viewBox="0 0 33.92 33.918" id="whatsapp">
        <g transform="translate(0)">
            <path d="M16.1,0h2.319a1.194,1.194,0,0,0,.219.058,15.256,15.256,0,0,1,5.646,1.486,16.377,16.377,0,0,1,9.44,12.461c.08.452.132.909.2,1.363v2.319c-.021.084-.049.166-.063.251-.146.879-.225,1.774-.443,2.633a16.62,16.62,0,0,1-15.147,12.47A16.351,16.351,0,0,1,9.73,31.276a.865.865,0,0,0-.718-.059q-4.1,1.32-8.2,2.619c-.232.074-.469.162-.68-.05s-.115-.449-.037-.679c.87-2.562,1.735-5.126,2.618-7.683a1.13,1.13,0,0,0-.086-1.014A16.161,16.161,0,0,1,.682,14.845,15.35,15.35,0,0,1,2.529,8.824,16.5,16.5,0,0,1,14.667.2c.475-.083.955-.135,1.433-.2M5.238,28.778c.135-.037.2-.052.259-.071,1.311-.415,2.624-.823,3.93-1.251a.8.8,0,0,1,.744.092,13.2,13.2,0,0,0,5.487,1.961,13.215,13.215,0,0,0,11.475-4.334A12.8,12.8,0,0,0,30.4,17.639a12.441,12.441,0,0,0-1.327-6.886,12.968,12.968,0,0,0-8.339-6.826,12.74,12.74,0,0,0-7.77.253A12.882,12.882,0,0,0,6.326,9.251a12.707,12.707,0,0,0-2.162,8.7,12.692,12.692,0,0,0,1.9,5.473c.757,1.207.731.722.258,2.154-.347,1.052-.707,2.1-1.082,3.206"
                  transform="translate(0)"/>
            <path d="M81.464,75.271a3.821,3.821,0,0,1-3.607,3.791,8.018,8.018,0,0,1-3.334-.514,15.443,15.443,0,0,1-8.093-6.189,10.278,10.278,0,0,1-1.78-3.294,5.1,5.1,0,0,1,.76-4.582,2.807,2.807,0,0,1,1.882-.984c.227-.044.457-.068.686-.1a1.071,1.071,0,0,1,1.236.61c.515,1.143,1,2.3,1.472,3.461a1.381,1.381,0,0,1-.343,1.348c-.237.343-.537.643-.792.974a.339.339,0,0,0-.049.3,12.268,12.268,0,0,0,5.134,4.441.352.352,0,0,0,.5-.129c.358-.462.735-.909,1.1-1.364a.969.969,0,0,1,1.308-.372c1.175.525,2.333,1.091,3.489,1.659a.9.9,0,0,1,.434.945"
                  transform="translate(-55.513 -54.615)"/>
        </g>
    </symbol>
    <symbol xmlns="http://www.w3.org/2000/svg" xml:space="preserve" viewBox="0 0 53.7 53.7" id="facebook">
    <path d="M39.6 0H14C6.3 0 0 6.3 0 14v25.6c0 7.7 6.3 14 14 14h8.6V35.4h-6.8v-7.8h6.8v-5.9c0-6.7 4-10.4 10.1-10.4 2.9 0 6 .5 6 .5v6.6h-3.4c-3.3 0-4.4 2.1-4.4 4.2v5h7.4l-1.2 7.8H31v18.2h8.6c7.7 0 14-6.3 14-14V14c0-7.7-6.3-14-14-14z"/>
  </symbol>
    <symbol xmlns="http://www.w3.org/2000/svg" xml:space="preserve" viewBox="0 0 53.7 53.7" id="instagram">
    <path d="M39.6 0H14C6.3 0 0 6.3 0 14v25.6c0 7.7 6.3 14 14 14h25.6c7.7 0 14-6.3 14-14V14c0-7.7-6.3-14-14-14zm3 33.1c0 5.2-4.2 9.5-9.5 9.5H20.5c-5.2 0-9.4-4.2-9.4-9.5V20.5c0-5.2 4.2-9.4 9.4-9.4h12.6c5.2 0 9.5 4.2 9.5 9.4v12.6z"/>
        <path d="M33.1 14.1H20.5C17 14.1 14 17 14 20.5v12.6c0 3.6 2.9 6.5 6.5 6.5h12.6c3.6 0 6.5-2.9 6.5-6.5V20.5c0-3.5-2.9-6.4-6.5-6.4zm-6.2 20.5c-4.3 0-7.8-3.5-7.8-7.8s3.5-7.8 7.8-7.8 7.7 3.5 7.7 7.8-3.4 7.8-7.7 7.8zm8.2-14.2c-1 0-1.8-.8-1.8-1.8s.8-1.8 1.8-1.8 1.8.8 1.8 1.8-.7 1.8-1.8 1.8z"/>
        <path d="M27 21.9c-2.7 0-5 2.2-5 5s2.2 5 5 5 5-2.2 5-5-2.3-5-5-5z"/>
  </symbol>
    <symbol xmlns="http://www.w3.org/2000/svg" xml:space="preserve" viewBox="0 0 53.7 53.7" id="twitter">
    <path d="M39.6 0H14C6.3 0 0 6.3 0 14v25.6c0 7.7 6.3 14 14 14h25.6c7.7 0 14-6.3 14-14V14c0-7.7-6.3-14-14-14zm1.9 17.7c0 .1 0 .3-.2.5-.7.9-1.4 1.7-2.3 2.4-.1.1-.4.2-.4.4 0 4.8-1.2 9.7-4.8 13.2-4.5 4.5-11.2 5.7-17.2 4-1.2-.3-2.3-.8-3.3-1.3-.4-.2-.7-.4-1-.6-.1-.1-.1-.1-.1-.2h.4c1.7.2 3.4-.1 5-.6.9-.3 2.7-.9 3.3-1.7-.2 0-.4 0-.6-.1-1.6-.5-3.8-1.3-4.8-4-.1-.2 0-.2.2-.2 1.3.1 1.8 0 2.3-.1-.3 0-.5-.1-.8-.2-2-.8-3.5-2.8-3.8-4.9 0-.2-.1-.5 0-.7 0-.2.1-.2.2-.1 1.1.5 2.2.7 2.3.6-.3-.2-.5-.4-.7-.6-1.8-1.7-2.5-5.1-1-7.2.1-.2.2-.2.3 0 3.2 3.7 7.2 5.4 12.1 6.1.1 0 .1 0 .1-.1-.1-.9-.1-1.7.1-2.5.2-.9.6-1.7 1.2-2.4.5-.7 1.2-1.2 2-1.6.8-.4 1.6-.6 2.5-.7.9-.1 1.8.1 2.6.4.6.3 1.2.6 1.7 1l.3.3c.1.1.1.1.2.1 1.2-.3 2.4-.7 3.5-1.3h.2v.1c-.2.6-.5 1.3-1 1.8-.3.4-1 1.2-1.5 1.3 1-.2 2-.4 3-.8v-.3z"/>
  </symbol>
    <symbol xmlns="http://www.w3.org/2000/svg" xml:space="preserve" viewBox="0 0 53.7 53.7" id="youtube">
    <path d="M39.6 0H14C6.3 0 0 6.3 0 14v25.6c0 7.7 6.3 14 14 14h25.6c7.7 0 14-6.3 14-14V14c0-7.7-6.3-14-14-14zM42 29.7c0 3.6-2.9 6.4-6.4 6.4H19.1c-3.6 0-6.4-2.9-6.4-6.4V22c0-3.6 2.9-6.4 6.4-6.4h16.5c3.6 0 6.4 2.9 6.4 6.4v7.7z"/>
        <path d="M24.9 21.8c-.3-.2-1.3 0-1.3.4v7.5c0 .3 1 .5 1.3.4l7.4-3.6c.3-.2 0-.6-.3-.8l-7.1-3.9z"/>
  </symbol>
</svg>