<svg xmlns="http://www.w3.org/2000/svg" xml:space="preserve" style="enable-background:new 0 0 53.7 53.7" viewBox="0 0 53.7 53.7"><path d="M39.6 0H14C6.3 0 0 6.3 0 14v25.6c0 7.7 6.3 14 14 14h25.6c7.7 0 14-6.3 14-14V14c0-7.7-6.3-14-14-14zm3 33.1c0 5.2-4.2 9.5-9.5 9.5H20.5c-5.2 0-9.4-4.2-9.4-9.5V20.5c0-5.2 4.2-9.4 9.4-9.4h12.6c5.2 0 9.5 4.2 9.5 9.4v12.6z" class="st0"/><path d="M33.1 14.1H20.5C17 14.1 14 17 14 20.5v12.6c0 3.6 2.9 6.5 6.5 6.5h12.6c3.6 0 6.5-2.9 6.5-6.5V20.5c0-3.5-2.9-6.4-6.5-6.4zm-6.2 20.5c-4.3 0-7.8-3.5-7.8-7.8s3.5-7.8 7.8-7.8 7.7 3.5 7.7 7.8-3.4 7.8-7.7 7.8zm8.2-14.2c-1 0-1.8-.8-1.8-1.8s.8-1.8 1.8-1.8 1.8.8 1.8 1.8-.7 1.8-1.8 1.8z" class="st0"/><path d="M27 21.9c-2.7 0-5 2.2-5 5s2.2 5 5 5 5-2.2 5-5-2.3-5-5-5z" class="st0"/></svg>