<svg xmlns="http://www.w3.org/2000/svg" xml:space="preserve" style="enable-background:new 0 0 53.7 53.7" viewBox="0 0 53.7 53.7"><path d="M39.6 0H14C6.3 0 0 6.3 0 14v25.6c0 7.7 6.3 14 14 14h25.6c7.7 0 14-6.3 14-14V14c0-7.7-6.3-14-14-14zm1.9 17.7c0 .1 0 .3-.2.5-.7.9-1.4 1.7-2.3 2.4-.1.1-.4.2-.4.4 0 4.8-1.2 9.7-4.8 13.2-4.5 4.5-11.2 5.7-17.2 4-1.2-.3-2.3-.8-3.3-1.3-.4-.2-.7-.4-1-.6-.1-.1-.1-.1-.1-.2h.4c1.7.2 3.4-.1 5-.6.9-.3 2.7-.9 3.3-1.7-.2 0-.4 0-.6-.1-1.6-.5-3.8-1.3-4.8-4-.1-.2 0-.2.2-.2 1.3.1 1.8 0 2.3-.1-.3 0-.5-.1-.8-.2-2-.8-3.5-2.8-3.8-4.9 0-.2-.1-.5 0-.7 0-.2.1-.2.2-.1 1.1.5 2.2.7 2.3.6-.3-.2-.5-.4-.7-.6-1.8-1.7-2.5-5.1-1-7.2.1-.2.2-.2.3 0 3.2 3.7 7.2 5.4 12.1 6.1.1 0 .1 0 .1-.1-.1-.9-.1-1.7.1-2.5.2-.9.6-1.7 1.2-2.4.5-.7 1.2-1.2 2-1.6.8-.4 1.6-.6 2.5-.7.9-.1 1.8.1 2.6.4.6.3 1.2.6 1.7 1l.3.3c.1.1.1.1.2.1 1.2-.3 2.4-.7 3.5-1.3h.2v.1c-.2.6-.5 1.3-1 1.8-.3.4-1 1.2-1.5 1.3 1-.2 2-.4 3-.8v-.3z" class="st0"/></svg>